<?xml version="1.0" encoding="UTF-8" standalone="no"?>
<svg width="300" height="350" xmlns="http://www.w3.org/2000/svg">
  <!-- Firefox the Fox -->
  
  <!-- Body -->
  <ellipse cx="150" cy="200" rx="70" ry="90" fill="#FF7F00" />
  
  <!-- White Chest -->
  <ellipse cx="150" cy="210" rx="40" ry="70" fill="white" />
  
  <!-- Head -->
  <circle cx="150" cy="100" r="50" fill="#FF7F00" />
  
  <!-- Ears -->
  <polygon points="105,70 85,30 125,50" fill="#FF7F00" />
  <polygon points="195,70 215,30 175,50" fill="#FF7F00" />
  <polygon points="105,70 95,40 120,55" fill="#FFA07A" />
  <polygon points="195,70 205,40 180,55" fill="#FFA07A" />
  
  <!-- White Face -->
  <path d="M110,120 C120,140 180,140 190,120 C190,100 180,80 150,80 C120,80 110,100 110,120 Z" fill="white" />
  
  <!-- Eyes -->
  <ellipse cx="130" cy="100" rx="10" ry="12" fill="white" />
  <ellipse cx="170" cy="100" rx="10" ry="12" fill="white" />
  <circle cx="130" cy="100" r="5" fill="black" />
  <circle cx="170" cy="100" r="5" fill="black" />
  <circle cx="128" cy="98" r="2" fill="white" />
  <circle cx="168" cy="98" r="2" fill="white" />
  
  <!-- Nose -->
  <path d="M145,115 L155,115 L150,125 Z" fill="black" />
  
  <!-- Smile -->
  <path d="M130,130 Q150,140 170,130" fill="none" stroke="black" stroke-width="2" />
  
  <!-- Legs -->
  <path d="M120,270 L100,320" stroke="#FF7F00" stroke-width="15" stroke-linecap="round" />
  <path d="M180,270 L200,320" stroke="#FF7F00" stroke-width="15" stroke-linecap="round" />
  
  <!-- Arms -->
  <path d="M100,180 L70,230" stroke="#FF7F00" stroke-width="15" stroke-linecap="round" />
  <path d="M200,180 L230,230" stroke="#FF7F00" stroke-width="15" stroke-linecap="round" />
  
  <!-- Paws -->
  <ellipse cx="70" cy="230" rx="15" ry="10" fill="#8B4513" />
  <ellipse cx="230" cy="230" rx="15" ry="10" fill="#8B4513" />
  <ellipse cx="100" cy="320" rx="15" ry="10" fill="#8B4513" />
  <ellipse cx="200" cy="320" rx="15" ry="10" fill="#8B4513" />
  
  <!-- Tail -->
  <path d="M180,250 Q240,230 260,180 Q265,160 245,150" fill="#FF7F00" />
  <path d="M245,150 Q250,140 240,135" fill="white" />
  
  <!-- Web Browser Icon -->
  <circle cx="190" cy="170" r="15" fill="#0000CD" />
  <circle cx="190" cy="170" r="10" fill="#1E90FF" />
  
  <!-- Title -->
  <text x="150" y="345" font-family="Arial" font-size="20" font-weight="bold" text-anchor="middle" fill="#000">Firefox</text>
</svg>
