<?xml version="1.0" encoding="UTF-8" standalone="no"?>
<svg width="300" height="350" xmlns="http://www.w3.org/2000/svg">
  <!-- Stella the Star Guide -->
  
  <!-- Body - Starry Blue -->
  <path d="M150,100 L180,250 L120,250 Z" fill="#1A237E" />
  <path d="M150,100 L100,190 L200,190 Z" fill="#1A237E" />
  <circle cx="150" cy="170" r="60" fill="#1A237E" />
  
  <!-- Starry Pattern -->
  <circle cx="120" cy="150" r="2" fill="white" />
  <circle cx="140" cy="180" r="2" fill="white" />
  <circle cx="160" cy="130" r="2" fill="white" />
  <circle cx="180" cy="170" r="2" fill="white" />
  <circle cx="130" cy="200" r="2" fill="white" />
  <circle cx="170" cy="200" r="2" fill="white" />
  <circle cx="150" cy="140" r="2" fill="white" />
  <circle cx="135" cy="165" r="2" fill="white" />
  <circle cx="165" cy="165" r="2" fill="white" />
  <circle cx="115" cy="175" r="2" fill="white" />
  <circle cx="185" cy="175" r="2" fill="white" />
  
  <!-- Larger Stars -->
  <path d="M120,160 L123,165 L128,166 L124,170 L125,176 L120,173 L115,176 L116,170 L112,166 L117,165 Z" fill="gold" />
  <path d="M180,150 L183,155 L188,156 L184,160 L185,166 L180,163 L175,166 L176,160 L172,156 L177,155 Z" fill="gold" />
  <path d="M150,210 L153,215 L158,216 L154,220 L155,226 L150,223 L145,226 L146,220 L142,216 L147,215 Z" fill="gold" />
  
  <!-- Head -->
  <circle cx="150" cy="80" r="40" fill="#1A237E" />
  
  <!-- Face -->
  <path d="M130,70 L170,70 L170,95 L130,95 Z" fill="#FFE0B2" />
  <circle cx="150" cy="70" r="20" fill="#FFE0B2" />
  
  <!-- Hair - Star shaped -->
  <path d="M150,40 L160,60 L180,55 L165,70 L180,85 L160,80 L150,100 L140,80 L120,85 L135,70 L120,55 L140,60 Z" fill="#FFD700" />
  
  <!-- Eyes -->
  <circle cx="140" cy="70" r="5" fill="white" />
  <circle cx="160" cy="70" r="5" fill="white" />
  <circle cx="140" cy="70" r="2" fill="#000080" />
  <circle cx="160" cy="70" r="2" fill="#000080" />
  
  <!-- Smile -->
  <path d="M140,85 Q150,92 160,85" fill="none" stroke="#000000" stroke-width="1.5" />
  
  <!-- Arms -->
  <path d="M120,170 L90,200" stroke="#1A237E" stroke-width="12" stroke-linecap="round" />
  <path d="M180,170 L210,200" stroke="#1A237E" stroke-width="12" stroke-linecap="round" />
  
  <!-- Hands -->
  <circle cx="90" cy="200" r="10" fill="#FFE0B2" />
  <circle cx="210" cy="200" r="10" fill="#FFE0B2" />
  
  <!-- Legs -->
  <path d="M135,250 L120,310" stroke="#1A237E" stroke-width="15" stroke-linecap="round" />
  <path d="M165,250 L180,310" stroke="#1A237E" stroke-width="15" stroke-linecap="round" />
  
  <!-- Feet -->
  <ellipse cx="120" cy="315" rx="12" ry="8" fill="#FFD700" />
  <ellipse cx="180" cy="315" rx="12" ry="8" fill="#FFD700" />
  
  <!-- Star Wand -->
  <line x1="90" y1="200" x2="65" y2="170" stroke="#8B4513" stroke-width="5" />
  <path d="M65,160 L70,170 L80,172 L71,180 L74,190 L65,185 L56,190 L59,180 L50,172 L60,170 Z" fill="#FFD700" />
  
  <!-- Star Crown -->
  <path d="M130,40 L135,30 L150,25 L165,30 L170,40" fill="none" stroke="#FFD700" stroke-width="3" />
  <path d="M130,40 L135,45 L150,50" fill="none" stroke="#FFD700" stroke-width="3" />
  <path d="M170,40 L165,45 L150,50" fill="none" stroke="#FFD700" stroke-width="3" />
  <circle cx="150" cy="25" r="8" fill="#FFD700" />
  <circle cx="130" cy="40" r="5" fill="#FFD700" />
  <circle cx="170" cy="40" r="5" fill="#FFD700" />
  
  <!-- Title -->
  <text x="150" y="340" font-family="Arial" font-size="20" font-weight="bold" text-anchor="middle" fill="#000">Stella</text>
</svg>
